:SAMPLES-PER-SECOND 30
:FULLY-SPECIFIED
:DEGREES
175
root  -4.15706 40.9833 0.38699 0.526184 -77.9703 3.21259
RightUpLeg  3.36796 -1.80249 -1.22374
RightLeg  -6.97147 -30.2702 4.21549
RightFoot  0.49535 -0.253876 2.38955
RightToes  -3.13588e-008 1.75238e-005 3.56266e-009
Spine  -2.62461 1.97524 -4.94846
Spine1  -2.61492 1.53209 5.09245
HEad  0.710227 -2.16759 6.23764
LeftShoulder1  0.421222 1.77833 -17.7558
LeftArm  -54.2931 -50.9447 -35.8723
LeftForeArm  100.348 -80.094 -94.8883
LeftHand  -0.733492 -4.39825 8.96285
RightShoulder  1.8963 2.97949 23.0943
RightArm  -20.7277 -6.28275 44.3757
RightForeArm  20.6966 44.5962 9.61201
RightHand  -0.395839 7.03779 -4.04353
LeftUpLeg  -0.341359 0.472475 2.84252
LeftLeg  -4.51639 4.23286 -0.650241
LeftFoot  1.89954 0.387609 -3.50755
LeftToes  4.76812e-008 1.47286e-008 1.3089e-009
176
root  -4.15309 40.9878 0.422964 0.847168 -78.2104 3.04889
RightUpLeg  3.3445 -1.77148 -1.24764
RightLeg  -7.36987 -30.0351 4.40813
RightFoot  0.713767 -0.253099 2.36677
RightToes  -3.13588e-008 1.75238e-005 3.56266e-009
Spine  -2.2532 1.96797 -4.73661
Spine1  -2.958 1.56987 4.68625
HEad  0.128827 -1.59998 6.20952
LeftShoulder1  0.38488 1.90279 -17.3388
LeftArm  -55.3766 -52.1083 -33.2034
LeftForeArm  146.765 -73.391 -144.138
LeftHand  -0.832017 -4.68439 9.87547
RightShoulder  1.92353 3.04967 23.202
RightArm  -20.7364 -6.34033 44.2854
RightForeArm  20.6109 44.724 9.66465
RightHand  -0.417364 6.96943 -4.26271
LeftUpLeg  -0.436681 0.463711 2.83445
LeftLeg  -4.6007 4.50462 -0.68533
LeftFoot  1.95199 0.385451 -3.47074
LeftToes  4.76812e-008 1.47286e-008 1.3089e-009
177
root  -4.15302 40.9899 0.458789 0.904633 -78.4886 3.18253
RightUpLeg  3.12868 -1.71832 -1.29827
RightLeg  -7.40271 -29.8223 4.33858
RightFoot  0.817691 -0.254254 2.37453
RightToes  -3.13588e-008 1.75238e-005 3.56266e-009
Spine  -2.09825 1.89067 -4.74025
Spine1  -3.06857 1.50832 4.5645
HEad  0.106242 -1.69324 6.38385
LeftShoulder1  0.283103 2.30955 -16.991
LeftArm  -55.9996 -54.4587 -32.7521
LeftForeArm  162.008 -63.4408 -159.611
LeftHand  -0.927916 -5.89878 9.83889
RightShoulder  1.94539 3.12568 23.1924
RightArm  -20.8035 -6.05162 44.3227
RightForeArm  20.698 44.7509 9.66835
RightHand  -0.378533 6.69506 -3.97567
LeftUpLeg  -0.528999 0.408534 2.76797
LeftLeg  -4.72739 4.84592 -0.740467
LeftFoot  1.98073 0.380491 -3.38921
LeftToes  4.76812e-008 1.47286e-008 1.3089e-009
178
root  -4.15896 40.9905 0.49091 0.909485 -78.5173 3.29205
RightUpLeg  3.06304 -1.67194 -1.32793
RightLeg  -7.49773 -29.8335 4.30635
RightFoot  0.886752 -0.257902 2.42163
RightToes  -3.13588e-008 1.75238e-005 3.56266e-009
Spine  -1.88872 1.83647 -4.67027
Spine1  -3.48888 1.47272 4.45119
HEad  0.212167 -2.27257 6.75444
LeftShoulder1  0.264463 2.37447 -16.6743
LeftArm  -56.6843 -55.2497 -32.0003
LeftForeArm  166.493 -54.7986 -165.635
LeftHand  -1.05964 -6.87547 10.3497
RightShoulder  2.01883 3.35113 23.304
RightArm  -20.7046 -6.27301 44.0468
RightForeArm  20.0001 44.8061 9.73796
RightHand  -0.407844 6.96367 -4.17693
LeftUpLeg  -0.587321 0.342957 2.70022
LeftLeg  -4.81742 4.94687 -0.761249
LeftFoot  2.01171 0.380376 -3.38205
LeftToes  4.76812e-008 1.47286e-008 1.3089e-009
179
root  -4.17648 40.9906 0.529762 0.829407 -78.5364 3.47369
RightUpLeg  3.03248 -1.67011 -1.39823
RightLeg  -7.5928 -29.8322 4.30494
RightFoot  0.960234 -0.263811 2.50461
RightToes  -3.13588e-008 1.75238e-005 3.56266e-009
Spine  -2.0451 1.95039 -4.38264
Spine1  -3.4929 1.60764 4.24127
HEad  0.546503 -2.30999 6.54852
LeftShoulder1  0.236826 2.50205 -16.8978
LeftArm  -56.6683 -55.2728 -32.716
LeftForeArm  166.629 -50.7143 -167.466
LeftHand  -1.13325 -7.30369 10.6881
RightShoulder  1.97253 3.23047 23.1358
RightArm  -20.8287 -6.29664 44.1425
RightForeArm  20.1151 44.7332 9.70318
RightHand  -0.381798 7.03485 -3.91694
LeftUpLeg  -0.595414 0.266669 2.59499
LeftLeg  -4.93271 5.08066 -0.771176
LeftFoot  2.04015 0.37962 -3.36385
LeftToes  4.76812e-008 1.47286e-008 1.3089e-009
180
root  -4.19889 40.9904 0.557911 0.632538 -78.3358 3.69678
RightUpLeg  3.07737 -1.74426 -1.49824
RightLeg  -7.5991 -29.9491 4.33083
RightFoot  0.931061 -0.269433 2.58351
RightToes  -3.13588e-008 1.75238e-005 3.56266e-009
Spine  -2.40477 2.05538 -3.81603
Spine1  -3.13642 1.77223 3.64563
HEad  0.793554 -2.39014 6.50138
LeftShoulder1  0.273587 2.36698 -17.3752
LeftArm  -56.8095 -54.2095 -32.8677
LeftForeArm  165.182 -52.0313 -166.737
LeftHand  -1.17152 -6.71006 11.5419
RightShoulder  1.90587 3.00301 23.1376
RightArm  -20.9692 -6.43446 44.2325
RightForeArm  20.5947 44.865 9.71732
RightHand  -0.356391 7.24128 -3.63405
LeftUpLeg  -0.598197 0.210404 2.50404
LeftLeg  -4.93858 4.92754 -0.770072
LeftFoot  2.04079 0.373431 -3.26005
LeftToes  4.76812e-008 1.47286e-008 1.3089e-009
181
root  -4.21814 40.9898 0.558145 0.358429 -77.9655 3.77246
RightUpLeg  3.33578 -1.79214 -1.50757
RightLeg  -7.53163 -30.235 4.29755
RightFoot  0.844819 -0.272537 2.62342
RightToes  -3.13588e-008 1.75238e-005 3.56266e-009
Spine  -2.65806 1.98378 -3.80451
Spine1  -2.63372 1.69022 3.68788
HEad  1.26378 -2.36462 6.6115
LeftShoulder1  0.289243 2.30837 -17.5146
LeftArm  -57.7058 -52.6346 -32.4342
LeftForeArm  163.807 -56.0321 -164.642
LeftHand  -1.09424 -5.916 11.5281
RightShoulder  1.91131 3.01329 23.1757
RightArm  -20.7404 -6.22452 44.2314
RightForeArm  20.6039 44.7157 9.66217
RightHand  -0.399918 6.53138 -4.2244
LeftUpLeg  -0.407246 0.236419 2.48425
LeftLeg  -4.93319 4.55196 -0.766964
LeftFoot  2.04961 0.373446 -3.25179
LeftToes  4.76812e-008 1.47286e-008 1.3089e-009
182
root  -4.23002 40.9891 0.555445 -0.00283813 -77.5475 3.91367
RightUpLeg  3.51012 -1.91539 -1.56158
RightLeg  -7.24398 -30.5707 4.21627
RightFoot  0.700372 -0.27493 2.65247
RightToes  -3.13588e-008 1.75238e-005 3.56266e-009
Spine  -2.75346 1.9594 -3.65351
Spine1  -2.32598 1.69352 3.4345
HEad  1.3152 -2.63583 6.856
LeftShoulder1  0.309212 2.22177 -17.4309
LeftArm  -57.4846 -51.6776 -32.2503
LeftForeArm  161.96 -61.1982 -161.257
LeftHand  -1.11504 -5.67949 11.9671
RightShoulder  1.95285 3.10199 23.4251
RightArm  -20.5327 -6.14848 44.0711
RightForeArm  20.0909 44.5218 9.62782
RightHand  -0.435097 6.98573 -4.42667
LeftUpLeg  -0.174895 0.216194 2.42761
LeftLeg  -4.99679 4.17252 -0.728558
LeftFoot  2.09781 0.37578 -3.27863
LeftToes  4.76812e-008 1.47286e-008 1.3089e-009
